<?xml version="1.0" encoding="utf-8"?>
<!-- Generator: Adobe Illustrator 25.1.0, SVG Export Plug-In . SVG Version: 6.00 Build 0)  -->
<svg version="1.1" xmlns="http://www.w3.org/2000/svg" xmlns:xlink="http://www.w3.org/1999/xlink" x="0px" y="0px"
	 viewBox="0 0 576 576" style="enable-background:new 0 0 576 576;" xml:space="preserve">
<style type="text/css">
	.st0{fill:#2887F3;}
	.st1{fill:#F2F2F2;}
</style>
<g id="Слой_1">
	<g>
		<path class="st0" d="M535.25,576H40.75C18.24,576,0,557.76,0,535.25V40.75C0,18.24,18.24,0,40.75,0h494.5
			C557.76,0,576,18.24,576,40.75v494.5C576,557.76,557.76,576,535.25,576z"/>
	</g>
</g>
<g id="Слой_2">
	<path class="st1" d="M221.5,316h-35c-5.77,0-10.5-4.73-10.5-10.5v-35c0-5.77,4.73-10.5,10.5-10.5h35c5.78,0,10.5,4.73,10.5,10.5v35
		C232,311.27,227.28,316,221.5,316z M316,305.5v-35c0-5.77-4.73-10.5-10.5-10.5h-35c-5.77,0-10.5,4.73-10.5,10.5v35
		c0,5.77,4.73,10.5,10.5,10.5h35C311.27,316,316,311.27,316,305.5z M400,305.5v-35c0-5.77-4.73-10.5-10.5-10.5h-35
		c-5.77,0-10.5,4.73-10.5,10.5v35c0,5.77,4.73,10.5,10.5,10.5h35C395.27,316,400,311.27,400,305.5z M316,389.5v-35
		c0-5.77-4.73-10.5-10.5-10.5h-35c-5.77,0-10.5,4.73-10.5,10.5v35c0,5.77,4.73,10.5,10.5,10.5h35C311.27,400,316,395.27,316,389.5z
		 M232,389.5v-35c0-5.77-4.72-10.5-10.5-10.5h-35c-5.77,0-10.5,4.73-10.5,10.5v35c0,5.77,4.73,10.5,10.5,10.5h35
		C227.28,400,232,395.27,232,389.5z M400,389.5v-35c0-5.77-4.73-10.5-10.5-10.5h-35c-5.77,0-10.5,4.73-10.5,10.5v35
		c0,5.77,4.73,10.5,10.5,10.5h35C395.27,400,400,395.27,400,389.5z M484,162v308c0,23.19-18.81,42-42,42H134
		c-23.19,0-42-18.81-42-42V162c0-23.19,18.81-42,42-42h42V74.5c0-5.78,4.73-10.5,10.5-10.5h35c5.78,0,10.5,4.72,10.5,10.5V120h112
		V74.5c0-5.78,4.73-10.5,10.5-10.5h35c5.77,0,10.5,4.72,10.5,10.5V120h42C465.19,120,484,138.81,484,162z M442,464.75V204H134
		v260.75c0,2.89,2.36,5.25,5.25,5.25h297.5C439.64,470,442,467.64,442,464.75z"/>
</g>
</svg>
